<svg xmlns="http://www.w3.org/2000/svg" xmlns:xlink="http://www.w3.org/1999/xlink" viewBox="0 0 24 24">
   <path d="M5.1,24H1.3C0.6,24,0,23.4,0,22.7V12.6c0-0.7,0.6-1.3,1.3-1.3h3.8c0.7,0,1.3,0.6,1.3,1.3v10.1C6.3,23.4,5.8,24,5.1,24z"/>
   <path d="M13.9,24h-3.8c-0.7,0-1.3-0.6-1.3-1.3V1.3C8.8,0.6,9.4,0,10.1,0h3.8c0.7,0,1.3,0.6,1.3,1.3v21.5C15.2,23.4,14.6,24,13.9,24z"/>
   <path d="M22.7,24h-3.8c-0.7,0-1.3-0.6-1.3-1.3V8.8c0-0.7,0.6-1.3,1.3-1.3h3.8c0.7,0,1.3,0.6,1.3,1.3v13.9C24,23.4,23.4,24,22.7,24z"/>
</svg>
